{"accessors" : [{"bufferView" : 0, "byteOffset" : 0, "componentType" : 5123, "count" : 48888, "type" : "SCALAR", "max" : [48353], "min" : [0]}, {"bufferView" : 1, "byteOffset" : 0, "componentType" : 5126, "count" : 48354, "type" : "VEC3", "max" : [39, 61, 141.2050018310547], "min" : [-62.194000244140625, -40.194000244140625, 0], "name" : "POSITION"}, {"bufferView" : 1, "byteOffset" : 12, "componentType" : 5126, "count" : 48354, "type" : "VEC3", "max" : [1.0000044107437134, 0.999921441078186, 1.0000044107437134], "min" : [-1.0000044107437134, -0.999921441078186, -1.0000044107437134], "name" : "NORMAL"}], "asset" : {"generator" : "Aspose.3D 23.7.0", "version" : "2.0"}, "buffers" : [{"uri" : "data:application/octet-stream;base64,", "byteLength" : 1271096}], "bufferViews" : [{"buffer" : 0, "byteOffset" : 0, "byteLength" : 97776, "target" : 34963}, {"buffer" : 0, "byteOffset" : 97780, "byteLength" : 1173312, "byteStride" : 24, "target" : 34962}], "meshes" : [{"primitives" : [{"attributes" : {"POSITION" : 1, "NORMAL" : 2}, "indices" : 0, "mode" : 4}], "name" : ""}], "nodes" : [{"mesh" : 0, "name" : ""}], "scene" : 0, "scenes" : [{"nodes" : [0]}]}